<mxfile host="app.diagrams.net" agent="Mozilla/5.0 (Macintosh; Intel Mac OS X 10_15_7) AppleWebKit/537.36 (KHTML, like Gecko) Chrome/134.0.0.0 Safari/537.36" version="26.1.0">
  <diagram name="Side-1" id="GHjTUxKBnm4g02ztmZ10">
    <mxGraphModel dx="954" dy="2977" grid="1" gridSize="10" guides="1" tooltips="1" connect="1" arrows="1" fold="1" page="1" pageScale="1" pageWidth="827" pageHeight="1169" background="none" math="0" shadow="0">
      <root>
        <mxCell id="0" />
        <mxCell id="1" parent="0" />
        <mxCell id="01Cn6UUHRZPfgiZ1-aKv-5" style="edgeStyle=orthogonalEdgeStyle;rounded=0;orthogonalLoop=1;jettySize=auto;html=1;exitX=0.5;exitY=1;exitDx=0;exitDy=0;entryX=0.5;entryY=0;entryDx=0;entryDy=0;" parent="1" source="01Cn6UUHRZPfgiZ1-aKv-2" edge="1">
          <mxGeometry relative="1" as="geometry">
            <mxPoint x="420" y="-1060" as="targetPoint" />
          </mxGeometry>
        </mxCell>
        <mxCell id="01Cn6UUHRZPfgiZ1-aKv-2" value="START" style="ellipse;whiteSpace=wrap;html=1;" parent="1" vertex="1">
          <mxGeometry x="360" y="-1160" width="120" height="80" as="geometry" />
        </mxCell>
        <mxCell id="cDbWXvLrCpcBQiEZtTeX-11" style="edgeStyle=orthogonalEdgeStyle;rounded=0;orthogonalLoop=1;jettySize=auto;html=1;exitX=0.5;exitY=1;exitDx=0;exitDy=0;entryX=0.5;entryY=0;entryDx=0;entryDy=0;" edge="1" parent="1" source="01Cn6UUHRZPfgiZ1-aKv-27" target="cDbWXvLrCpcBQiEZtTeX-8">
          <mxGeometry relative="1" as="geometry" />
        </mxCell>
        <mxCell id="01Cn6UUHRZPfgiZ1-aKv-27" value="Spilet starter" style="whiteSpace=wrap;html=1;" parent="1" vertex="1">
          <mxGeometry x="360" y="-955" width="120" height="60" as="geometry" />
        </mxCell>
        <mxCell id="Bi03TDWfDMKd8-1LbUZK-4" value="" style="edgeStyle=orthogonalEdgeStyle;rounded=0;orthogonalLoop=1;jettySize=auto;html=1;" parent="1" source="Bi03TDWfDMKd8-1LbUZK-1" edge="1">
          <mxGeometry relative="1" as="geometry">
            <mxPoint x="1670" y="-1050" as="targetPoint" />
          </mxGeometry>
        </mxCell>
        <mxCell id="Bi03TDWfDMKd8-1LbUZK-1" value="START" style="ellipse;whiteSpace=wrap;html=1;" parent="1" vertex="1">
          <mxGeometry x="1610" y="-1169" width="120" height="80" as="geometry" />
        </mxCell>
        <mxCell id="Bi03TDWfDMKd8-1LbUZK-24" style="edgeStyle=orthogonalEdgeStyle;rounded=0;orthogonalLoop=1;jettySize=auto;html=1;exitX=0.5;exitY=1;exitDx=0;exitDy=0;entryX=0.5;entryY=0;entryDx=0;entryDy=0;" parent="1" edge="1">
          <mxGeometry relative="1" as="geometry">
            <mxPoint x="1670" y="-990" as="sourcePoint" />
            <mxPoint x="1670" y="-935" as="targetPoint" />
          </mxGeometry>
        </mxCell>
        <mxCell id="Bi03TDWfDMKd8-1LbUZK-7" value="SLUT" style="ellipse;whiteSpace=wrap;html=1;" parent="1" vertex="1">
          <mxGeometry x="1270" y="-1169" width="120" height="80" as="geometry" />
        </mxCell>
        <mxCell id="Bi03TDWfDMKd8-1LbUZK-9" value="ja" style="text;html=1;align=center;verticalAlign=middle;whiteSpace=wrap;rounded=0;" parent="1" vertex="1">
          <mxGeometry x="1420" y="-1050" width="60" height="30" as="geometry" />
        </mxCell>
        <mxCell id="Bi03TDWfDMKd8-1LbUZK-12" style="edgeStyle=orthogonalEdgeStyle;rounded=0;orthogonalLoop=1;jettySize=auto;html=1;exitX=0;exitY=0.5;exitDx=0;exitDy=0;entryX=0.5;entryY=1;entryDx=0;entryDy=0;" parent="1" source="Bi03TDWfDMKd8-1LbUZK-44" target="Bi03TDWfDMKd8-1LbUZK-7" edge="1">
          <mxGeometry relative="1" as="geometry">
            <mxPoint x="1460" y="-1020" as="sourcePoint" />
          </mxGeometry>
        </mxCell>
        <mxCell id="Bi03TDWfDMKd8-1LbUZK-27" style="edgeStyle=orthogonalEdgeStyle;rounded=0;orthogonalLoop=1;jettySize=auto;html=1;entryX=1;entryY=0.5;entryDx=0;entryDy=0;exitX=0;exitY=0.5;exitDx=0;exitDy=0;" parent="1" source="Bi03TDWfDMKd8-1LbUZK-45" target="Bi03TDWfDMKd8-1LbUZK-47" edge="1">
          <mxGeometry relative="1" as="geometry">
            <mxPoint x="1620" y="-900" as="sourcePoint" />
            <mxPoint x="1580" y="-905" as="targetPoint" />
          </mxGeometry>
        </mxCell>
        <mxCell id="Bi03TDWfDMKd8-1LbUZK-29" style="edgeStyle=orthogonalEdgeStyle;rounded=0;orthogonalLoop=1;jettySize=auto;html=1;exitX=1;exitY=0.5;exitDx=0;exitDy=0;" parent="1" source="Bi03TDWfDMKd8-1LbUZK-45" edge="1">
          <mxGeometry relative="1" as="geometry">
            <mxPoint x="1670" y="-1050" as="targetPoint" />
            <mxPoint x="1730" y="-905" as="sourcePoint" />
            <Array as="points">
              <mxPoint x="1718" y="-905" />
              <mxPoint x="1770" y="-905" />
              <mxPoint x="1770" y="-1070" />
              <mxPoint x="1670" y="-1070" />
            </Array>
          </mxGeometry>
        </mxCell>
        <mxCell id="Bi03TDWfDMKd8-1LbUZK-20" value="" style="edgeStyle=orthogonalEdgeStyle;rounded=0;orthogonalLoop=1;jettySize=auto;html=1;exitX=0.5;exitY=0;exitDx=0;exitDy=0;" parent="1" edge="1">
          <mxGeometry relative="1" as="geometry">
            <mxPoint x="1670" y="-1050" as="targetPoint" />
            <mxPoint x="1520" y="-1050" as="sourcePoint" />
            <Array as="points">
              <mxPoint x="1520" y="-1070" />
              <mxPoint x="1670" y="-1070" />
            </Array>
          </mxGeometry>
        </mxCell>
        <mxCell id="Bi03TDWfDMKd8-1LbUZK-21" value="nej" style="text;html=1;align=center;verticalAlign=middle;whiteSpace=wrap;rounded=0;" parent="1" vertex="1">
          <mxGeometry x="1510" y="-1100" width="60" height="30" as="geometry" />
        </mxCell>
        <mxCell id="Bi03TDWfDMKd8-1LbUZK-25" value="nej" style="text;html=1;align=center;verticalAlign=middle;whiteSpace=wrap;rounded=0;" parent="1" vertex="1">
          <mxGeometry x="1654" y="-980" width="60" height="30" as="geometry" />
        </mxCell>
        <mxCell id="Bi03TDWfDMKd8-1LbUZK-35" style="edgeStyle=orthogonalEdgeStyle;rounded=0;orthogonalLoop=1;jettySize=auto;html=1;exitX=0.5;exitY=1;exitDx=0;exitDy=0;entryX=0.5;entryY=0;entryDx=0;entryDy=0;" parent="1" edge="1">
          <mxGeometry relative="1" as="geometry">
            <mxPoint x="1520" y="-875" as="sourcePoint" />
            <mxPoint x="1670" y="-1050" as="targetPoint" />
            <Array as="points">
              <mxPoint x="1520" y="-855" />
              <mxPoint x="1770" y="-855" />
              <mxPoint x="1770" y="-1070" />
              <mxPoint x="1670" y="-1070" />
            </Array>
          </mxGeometry>
        </mxCell>
        <mxCell id="Bi03TDWfDMKd8-1LbUZK-28" value="ja" style="text;html=1;align=center;verticalAlign=middle;whiteSpace=wrap;rounded=0;" parent="1" vertex="1">
          <mxGeometry x="1570" y="-940" width="60" height="30" as="geometry" />
        </mxCell>
        <mxCell id="Bi03TDWfDMKd8-1LbUZK-30" value="nej" style="text;html=1;align=center;verticalAlign=middle;whiteSpace=wrap;rounded=0;" parent="1" vertex="1">
          <mxGeometry x="1710" y="-935" width="60" height="30" as="geometry" />
        </mxCell>
        <mxCell id="Bi03TDWfDMKd8-1LbUZK-52" style="edgeStyle=orthogonalEdgeStyle;rounded=0;orthogonalLoop=1;jettySize=auto;html=1;exitX=0.5;exitY=1;exitDx=0;exitDy=0;entryX=0.5;entryY=0;entryDx=0;entryDy=0;" parent="1" source="Bi03TDWfDMKd8-1LbUZK-31" target="Bi03TDWfDMKd8-1LbUZK-51" edge="1">
          <mxGeometry relative="1" as="geometry" />
        </mxCell>
        <mxCell id="Bi03TDWfDMKd8-1LbUZK-31" value="Spilet starter" style="rounded=0;whiteSpace=wrap;html=1;" parent="1" vertex="1">
          <mxGeometry x="1310" y="-940" width="120" height="60" as="geometry" />
        </mxCell>
        <mxCell id="Bi03TDWfDMKd8-1LbUZK-42" style="edgeStyle=orthogonalEdgeStyle;rounded=0;orthogonalLoop=1;jettySize=auto;html=1;exitX=0;exitY=0.5;exitDx=0;exitDy=0;entryX=1;entryY=0.5;entryDx=0;entryDy=0;" parent="1" source="Bi03TDWfDMKd8-1LbUZK-40" target="Bi03TDWfDMKd8-1LbUZK-44" edge="1">
          <mxGeometry relative="1" as="geometry">
            <mxPoint x="1580" y="-1020" as="targetPoint" />
          </mxGeometry>
        </mxCell>
        <mxCell id="Bi03TDWfDMKd8-1LbUZK-40" value="er musen på afslut" style="rhombus;whiteSpace=wrap;html=1;" parent="1" vertex="1">
          <mxGeometry x="1622.5" y="-1050" width="95" height="70" as="geometry" />
        </mxCell>
        <mxCell id="Bi03TDWfDMKd8-1LbUZK-43" value="ja" style="text;html=1;align=center;verticalAlign=middle;whiteSpace=wrap;rounded=0;" parent="1" vertex="1">
          <mxGeometry x="1570" y="-1050" width="60" height="30" as="geometry" />
        </mxCell>
        <mxCell id="Bi03TDWfDMKd8-1LbUZK-44" value="bliver musen klikket" style="rhombus;whiteSpace=wrap;html=1;" parent="1" vertex="1">
          <mxGeometry x="1470" y="-1060" width="100" height="80" as="geometry" />
        </mxCell>
        <mxCell id="Bi03TDWfDMKd8-1LbUZK-45" value="er musen på afslut" style="rhombus;whiteSpace=wrap;html=1;" parent="1" vertex="1">
          <mxGeometry x="1622.5" y="-940" width="95" height="70" as="geometry" />
        </mxCell>
        <mxCell id="Bi03TDWfDMKd8-1LbUZK-48" style="edgeStyle=orthogonalEdgeStyle;rounded=0;orthogonalLoop=1;jettySize=auto;html=1;exitX=0;exitY=0.5;exitDx=0;exitDy=0;" parent="1" source="Bi03TDWfDMKd8-1LbUZK-47" target="Bi03TDWfDMKd8-1LbUZK-31" edge="1">
          <mxGeometry relative="1" as="geometry" />
        </mxCell>
        <mxCell id="Bi03TDWfDMKd8-1LbUZK-47" value="bliver musen klikket" style="rhombus;whiteSpace=wrap;html=1;" parent="1" vertex="1">
          <mxGeometry x="1470" y="-950" width="100" height="80" as="geometry" />
        </mxCell>
        <mxCell id="Bi03TDWfDMKd8-1LbUZK-49" value="nej" style="text;html=1;align=center;verticalAlign=middle;whiteSpace=wrap;rounded=0;" parent="1" vertex="1">
          <mxGeometry x="1520" y="-880" width="60" height="30" as="geometry" />
        </mxCell>
        <mxCell id="Bi03TDWfDMKd8-1LbUZK-50" value="ja" style="text;html=1;align=center;verticalAlign=middle;whiteSpace=wrap;rounded=0;" parent="1" vertex="1">
          <mxGeometry x="1430" y="-935" width="60" height="30" as="geometry" />
        </mxCell>
        <mxCell id="Bi03TDWfDMKd8-1LbUZK-100" style="edgeStyle=orthogonalEdgeStyle;rounded=0;orthogonalLoop=1;jettySize=auto;html=1;exitX=0.5;exitY=1;exitDx=0;exitDy=0;entryX=0.5;entryY=0;entryDx=0;entryDy=0;" parent="1" target="Bi03TDWfDMKd8-1LbUZK-62" edge="1">
          <mxGeometry relative="1" as="geometry">
            <mxPoint x="1370" y="-610.06" as="sourcePoint" />
          </mxGeometry>
        </mxCell>
        <mxCell id="Bi03TDWfDMKd8-1LbUZK-165" value="" style="edgeStyle=orthogonalEdgeStyle;rounded=0;orthogonalLoop=1;jettySize=auto;html=1;" parent="1" source="Bi03TDWfDMKd8-1LbUZK-51" target="Bi03TDWfDMKd8-1LbUZK-164" edge="1">
          <mxGeometry relative="1" as="geometry" />
        </mxCell>
        <mxCell id="Bi03TDWfDMKd8-1LbUZK-51" value="bliver esc trykket" style="rhombus;whiteSpace=wrap;html=1;" parent="1" vertex="1">
          <mxGeometry x="1315" y="-810" width="110" height="90" as="geometry" />
        </mxCell>
        <mxCell id="Bi03TDWfDMKd8-1LbUZK-57" value="" style="endArrow=none;html=1;rounded=0;exitX=1;exitY=0.5;exitDx=0;exitDy=0;" parent="1" source="Bi03TDWfDMKd8-1LbUZK-51" edge="1">
          <mxGeometry width="50" height="50" relative="1" as="geometry">
            <mxPoint x="1580" y="-765" as="sourcePoint" />
            <mxPoint x="1770" y="-860" as="targetPoint" />
            <Array as="points">
              <mxPoint x="1770" y="-765" />
            </Array>
          </mxGeometry>
        </mxCell>
        <mxCell id="Bi03TDWfDMKd8-1LbUZK-61" value="ja" style="text;html=1;align=center;verticalAlign=middle;whiteSpace=wrap;rounded=0;" parent="1" vertex="1">
          <mxGeometry x="1410" y="-805" width="60" height="30" as="geometry" />
        </mxCell>
        <mxCell id="Bi03TDWfDMKd8-1LbUZK-69" value="" style="edgeStyle=orthogonalEdgeStyle;rounded=0;orthogonalLoop=1;jettySize=auto;html=1;" parent="1" source="Bi03TDWfDMKd8-1LbUZK-62" target="Bi03TDWfDMKd8-1LbUZK-68" edge="1">
          <mxGeometry relative="1" as="geometry" />
        </mxCell>
        <mxCell id="Bi03TDWfDMKd8-1LbUZK-101" style="edgeStyle=orthogonalEdgeStyle;rounded=0;orthogonalLoop=1;jettySize=auto;html=1;exitX=0.5;exitY=1;exitDx=0;exitDy=0;entryX=0.5;entryY=0;entryDx=0;entryDy=0;" parent="1" source="Bi03TDWfDMKd8-1LbUZK-62" target="Bi03TDWfDMKd8-1LbUZK-63" edge="1">
          <mxGeometry relative="1" as="geometry" />
        </mxCell>
        <mxCell id="Bi03TDWfDMKd8-1LbUZK-62" value="bliver a trykket" style="rhombus;whiteSpace=wrap;html=1;" parent="1" vertex="1">
          <mxGeometry x="1315" y="-590.06" width="110" height="90" as="geometry" />
        </mxCell>
        <mxCell id="Bi03TDWfDMKd8-1LbUZK-72" value="" style="edgeStyle=orthogonalEdgeStyle;rounded=0;orthogonalLoop=1;jettySize=auto;html=1;" parent="1" source="Bi03TDWfDMKd8-1LbUZK-63" target="Bi03TDWfDMKd8-1LbUZK-71" edge="1">
          <mxGeometry relative="1" as="geometry" />
        </mxCell>
        <mxCell id="Bi03TDWfDMKd8-1LbUZK-102" style="edgeStyle=orthogonalEdgeStyle;rounded=0;orthogonalLoop=1;jettySize=auto;html=1;exitX=0.5;exitY=1;exitDx=0;exitDy=0;entryX=0.5;entryY=0;entryDx=0;entryDy=0;" parent="1" source="Bi03TDWfDMKd8-1LbUZK-63" target="Bi03TDWfDMKd8-1LbUZK-64" edge="1">
          <mxGeometry relative="1" as="geometry" />
        </mxCell>
        <mxCell id="Bi03TDWfDMKd8-1LbUZK-63" value="bliver d trykket" style="rhombus;whiteSpace=wrap;html=1;" parent="1" vertex="1">
          <mxGeometry x="1315" y="-474.56" width="110" height="90" as="geometry" />
        </mxCell>
        <mxCell id="Bi03TDWfDMKd8-1LbUZK-74" value="" style="edgeStyle=orthogonalEdgeStyle;rounded=0;orthogonalLoop=1;jettySize=auto;html=1;" parent="1" source="Bi03TDWfDMKd8-1LbUZK-64" target="Bi03TDWfDMKd8-1LbUZK-73" edge="1">
          <mxGeometry relative="1" as="geometry" />
        </mxCell>
        <mxCell id="Bi03TDWfDMKd8-1LbUZK-112" style="edgeStyle=orthogonalEdgeStyle;rounded=0;orthogonalLoop=1;jettySize=auto;html=1;exitX=0.5;exitY=1;exitDx=0;exitDy=0;entryX=0.5;entryY=0;entryDx=0;entryDy=0;" parent="1" source="Bi03TDWfDMKd8-1LbUZK-64" target="Bi03TDWfDMKd8-1LbUZK-65" edge="1">
          <mxGeometry relative="1" as="geometry" />
        </mxCell>
        <mxCell id="Bi03TDWfDMKd8-1LbUZK-64" value="bliver x trykket" style="rhombus;whiteSpace=wrap;html=1;" parent="1" vertex="1">
          <mxGeometry x="1315" y="-360.06" width="110" height="90" as="geometry" />
        </mxCell>
        <mxCell id="Bi03TDWfDMKd8-1LbUZK-87" style="edgeStyle=orthogonalEdgeStyle;rounded=0;orthogonalLoop=1;jettySize=auto;html=1;exitX=1;exitY=0.5;exitDx=0;exitDy=0;entryX=0;entryY=0.5;entryDx=0;entryDy=0;" parent="1" source="Bi03TDWfDMKd8-1LbUZK-65" target="Bi03TDWfDMKd8-1LbUZK-75" edge="1">
          <mxGeometry relative="1" as="geometry" />
        </mxCell>
        <mxCell id="Bi03TDWfDMKd8-1LbUZK-116" style="edgeStyle=orthogonalEdgeStyle;rounded=0;orthogonalLoop=1;jettySize=auto;html=1;exitX=0.5;exitY=1;exitDx=0;exitDy=0;entryX=0.5;entryY=0;entryDx=0;entryDy=0;" parent="1" source="Bi03TDWfDMKd8-1LbUZK-65" target="Bi03TDWfDMKd8-1LbUZK-66" edge="1">
          <mxGeometry relative="1" as="geometry" />
        </mxCell>
        <mxCell id="Bi03TDWfDMKd8-1LbUZK-65" value="bliver a dobbelt trykket" style="rhombus;whiteSpace=wrap;html=1;" parent="1" vertex="1">
          <mxGeometry x="1315" y="-250.06" width="110" height="90" as="geometry" />
        </mxCell>
        <mxCell id="Bi03TDWfDMKd8-1LbUZK-78" value="" style="edgeStyle=orthogonalEdgeStyle;rounded=0;orthogonalLoop=1;jettySize=auto;html=1;" parent="1" source="Bi03TDWfDMKd8-1LbUZK-66" target="Bi03TDWfDMKd8-1LbUZK-77" edge="1">
          <mxGeometry relative="1" as="geometry" />
        </mxCell>
        <mxCell id="Bi03TDWfDMKd8-1LbUZK-105" style="edgeStyle=orthogonalEdgeStyle;rounded=0;orthogonalLoop=1;jettySize=auto;html=1;exitX=0.5;exitY=1;exitDx=0;exitDy=0;entryX=0.5;entryY=0;entryDx=0;entryDy=0;" parent="1" source="Bi03TDWfDMKd8-1LbUZK-66" target="Bi03TDWfDMKd8-1LbUZK-67" edge="1">
          <mxGeometry relative="1" as="geometry" />
        </mxCell>
        <mxCell id="Bi03TDWfDMKd8-1LbUZK-66" value="bliver d dobbelt trykket" style="rhombus;whiteSpace=wrap;html=1;" parent="1" vertex="1">
          <mxGeometry x="1315" y="-140.06" width="110" height="90" as="geometry" />
        </mxCell>
        <mxCell id="Bi03TDWfDMKd8-1LbUZK-80" value="" style="edgeStyle=orthogonalEdgeStyle;rounded=0;orthogonalLoop=1;jettySize=auto;html=1;" parent="1" source="Bi03TDWfDMKd8-1LbUZK-67" target="Bi03TDWfDMKd8-1LbUZK-79" edge="1">
          <mxGeometry relative="1" as="geometry" />
        </mxCell>
        <mxCell id="Bi03TDWfDMKd8-1LbUZK-67" value="bliver mellemrum trykket" style="rhombus;whiteSpace=wrap;html=1;" parent="1" vertex="1">
          <mxGeometry x="1315" y="-20.060000000000002" width="110" height="90" as="geometry" />
        </mxCell>
        <mxCell id="Bi03TDWfDMKd8-1LbUZK-90" style="edgeStyle=orthogonalEdgeStyle;rounded=0;orthogonalLoop=1;jettySize=auto;html=1;exitX=1;exitY=0.5;exitDx=0;exitDy=0;" parent="1" source="Bi03TDWfDMKd8-1LbUZK-68" edge="1">
          <mxGeometry relative="1" as="geometry">
            <mxPoint x="1370" y="-810" as="targetPoint" />
            <Array as="points">
              <mxPoint x="1600" y="-545" />
              <mxPoint x="1600" y="90" />
              <mxPoint x="1250" y="90" />
              <mxPoint x="1250" y="-840" />
              <mxPoint x="1370" y="-840" />
            </Array>
          </mxGeometry>
        </mxCell>
        <mxCell id="Bi03TDWfDMKd8-1LbUZK-68" value="Karakteren går til venstre" style="whiteSpace=wrap;html=1;" parent="1" vertex="1">
          <mxGeometry x="1460" y="-575.06" width="120" height="60" as="geometry" />
        </mxCell>
        <mxCell id="Bi03TDWfDMKd8-1LbUZK-71" value="Karakteren går til højere" style="whiteSpace=wrap;html=1;" parent="1" vertex="1">
          <mxGeometry x="1460" y="-459.56" width="120" height="60" as="geometry" />
        </mxCell>
        <mxCell id="Bi03TDWfDMKd8-1LbUZK-132" style="edgeStyle=orthogonalEdgeStyle;rounded=0;orthogonalLoop=1;jettySize=auto;html=1;exitX=1;exitY=0.5;exitDx=0;exitDy=0;dashed=1;" parent="1" source="Bi03TDWfDMKd8-1LbUZK-73" target="Bi03TDWfDMKd8-1LbUZK-128" edge="1">
          <mxGeometry relative="1" as="geometry" />
        </mxCell>
        <mxCell id="Bi03TDWfDMKd8-1LbUZK-73" value="karakteren angriber" style="whiteSpace=wrap;html=1;" parent="1" vertex="1">
          <mxGeometry x="1460" y="-345.06" width="120" height="60" as="geometry" />
        </mxCell>
        <mxCell id="Bi03TDWfDMKd8-1LbUZK-75" value="karakteren dasher til venstre" style="whiteSpace=wrap;html=1;" parent="1" vertex="1">
          <mxGeometry x="1460" y="-235.06" width="120" height="60" as="geometry" />
        </mxCell>
        <mxCell id="Bi03TDWfDMKd8-1LbUZK-77" value="karakteren dasher til højere" style="whiteSpace=wrap;html=1;" parent="1" vertex="1">
          <mxGeometry x="1460" y="-125.06" width="120" height="60" as="geometry" />
        </mxCell>
        <mxCell id="Bi03TDWfDMKd8-1LbUZK-79" value="karakteren hopper" style="whiteSpace=wrap;html=1;" parent="1" vertex="1">
          <mxGeometry x="1460" y="-5.060000000000002" width="120" height="60" as="geometry" />
        </mxCell>
        <mxCell id="Bi03TDWfDMKd8-1LbUZK-81" value="ja" style="text;html=1;align=center;verticalAlign=middle;whiteSpace=wrap;rounded=0;" parent="1" vertex="1">
          <mxGeometry x="1410" y="-570.06" width="60" height="30" as="geometry" />
        </mxCell>
        <mxCell id="Bi03TDWfDMKd8-1LbUZK-82" value="ja" style="text;html=1;align=center;verticalAlign=middle;whiteSpace=wrap;rounded=0;" parent="1" vertex="1">
          <mxGeometry x="1410" y="-459.56" width="60" height="30" as="geometry" />
        </mxCell>
        <mxCell id="Bi03TDWfDMKd8-1LbUZK-83" value="ja" style="text;html=1;align=center;verticalAlign=middle;whiteSpace=wrap;rounded=0;" parent="1" vertex="1">
          <mxGeometry x="1410" y="-340.06" width="60" height="30" as="geometry" />
        </mxCell>
        <mxCell id="Bi03TDWfDMKd8-1LbUZK-86" value="ja" style="text;html=1;align=center;verticalAlign=middle;whiteSpace=wrap;rounded=0;" parent="1" vertex="1">
          <mxGeometry x="1410" y="-125.06" width="60" height="30" as="geometry" />
        </mxCell>
        <mxCell id="Bi03TDWfDMKd8-1LbUZK-88" value="ja" style="text;html=1;align=center;verticalAlign=middle;whiteSpace=wrap;rounded=0;" parent="1" vertex="1">
          <mxGeometry x="1410" y="-235.06" width="60" height="30" as="geometry" />
        </mxCell>
        <mxCell id="Bi03TDWfDMKd8-1LbUZK-89" value="ja" style="text;html=1;align=center;verticalAlign=middle;whiteSpace=wrap;rounded=0;" parent="1" vertex="1">
          <mxGeometry x="1410" y="-5.060000000000002" width="60" height="30" as="geometry" />
        </mxCell>
        <mxCell id="Bi03TDWfDMKd8-1LbUZK-91" value="" style="endArrow=none;html=1;rounded=0;entryX=1;entryY=0.5;entryDx=0;entryDy=0;" parent="1" target="Bi03TDWfDMKd8-1LbUZK-71" edge="1">
          <mxGeometry width="50" height="50" relative="1" as="geometry">
            <mxPoint x="1600" y="-430.06" as="sourcePoint" />
            <mxPoint x="1570" y="-440.06" as="targetPoint" />
          </mxGeometry>
        </mxCell>
        <mxCell id="Bi03TDWfDMKd8-1LbUZK-93" value="" style="endArrow=none;html=1;rounded=0;exitX=1;exitY=0.5;exitDx=0;exitDy=0;" parent="1" source="Bi03TDWfDMKd8-1LbUZK-75" edge="1">
          <mxGeometry width="50" height="50" relative="1" as="geometry">
            <mxPoint x="1520" y="-160.06" as="sourcePoint" />
            <mxPoint x="1600" y="-205.06" as="targetPoint" />
          </mxGeometry>
        </mxCell>
        <mxCell id="Bi03TDWfDMKd8-1LbUZK-94" value="" style="endArrow=none;html=1;rounded=0;exitX=1;exitY=0.5;exitDx=0;exitDy=0;" parent="1" source="Bi03TDWfDMKd8-1LbUZK-77" edge="1">
          <mxGeometry width="50" height="50" relative="1" as="geometry">
            <mxPoint x="1520" y="-50.06" as="sourcePoint" />
            <mxPoint x="1600" y="-95.06" as="targetPoint" />
          </mxGeometry>
        </mxCell>
        <mxCell id="Bi03TDWfDMKd8-1LbUZK-97" value="" style="endArrow=none;html=1;rounded=0;entryX=1;entryY=0.5;entryDx=0;entryDy=0;" parent="1" target="Bi03TDWfDMKd8-1LbUZK-79" edge="1">
          <mxGeometry width="50" height="50" relative="1" as="geometry">
            <mxPoint x="1600" y="24.939999999999998" as="sourcePoint" />
            <mxPoint x="1570" y="29.939999999999998" as="targetPoint" />
          </mxGeometry>
        </mxCell>
        <mxCell id="Bi03TDWfDMKd8-1LbUZK-106" value="" style="endArrow=none;html=1;rounded=0;entryX=0.5;entryY=1;entryDx=0;entryDy=0;" parent="1" target="Bi03TDWfDMKd8-1LbUZK-67" edge="1">
          <mxGeometry width="50" height="50" relative="1" as="geometry">
            <mxPoint x="1370" y="89.94" as="sourcePoint" />
            <mxPoint x="1360" y="39.94" as="targetPoint" />
          </mxGeometry>
        </mxCell>
        <mxCell id="Bi03TDWfDMKd8-1LbUZK-107" value="nej" style="text;html=1;align=center;verticalAlign=middle;whiteSpace=wrap;rounded=0;" parent="1" vertex="1">
          <mxGeometry x="1320" y="-730" width="60" height="30" as="geometry" />
        </mxCell>
        <mxCell id="Bi03TDWfDMKd8-1LbUZK-108" value="nej" style="text;html=1;align=center;verticalAlign=middle;whiteSpace=wrap;rounded=0;" parent="1" vertex="1">
          <mxGeometry x="1330" y="-505.06" width="60" height="30" as="geometry" />
        </mxCell>
        <mxCell id="Bi03TDWfDMKd8-1LbUZK-109" value="nej" style="text;html=1;align=center;verticalAlign=middle;whiteSpace=wrap;rounded=0;" parent="1" vertex="1">
          <mxGeometry x="1330" y="-390.06" width="60" height="30" as="geometry" />
        </mxCell>
        <mxCell id="Bi03TDWfDMKd8-1LbUZK-113" value="nej" style="text;html=1;align=center;verticalAlign=middle;whiteSpace=wrap;rounded=0;" parent="1" vertex="1">
          <mxGeometry x="1330" y="-280.06" width="60" height="30" as="geometry" />
        </mxCell>
        <mxCell id="Bi03TDWfDMKd8-1LbUZK-117" value="nej" style="text;html=1;align=center;verticalAlign=middle;whiteSpace=wrap;rounded=0;" parent="1" vertex="1">
          <mxGeometry x="1330" y="-170.06" width="60" height="30" as="geometry" />
        </mxCell>
        <mxCell id="Bi03TDWfDMKd8-1LbUZK-118" value="nej" style="text;html=1;align=center;verticalAlign=middle;whiteSpace=wrap;rounded=0;" parent="1" vertex="1">
          <mxGeometry x="1330" y="-50.06" width="60" height="30" as="geometry" />
        </mxCell>
        <mxCell id="Bi03TDWfDMKd8-1LbUZK-119" value="nej" style="text;html=1;align=center;verticalAlign=middle;whiteSpace=wrap;rounded=0;" parent="1" vertex="1">
          <mxGeometry x="1330" y="59.94" width="60" height="30" as="geometry" />
        </mxCell>
        <mxCell id="Bi03TDWfDMKd8-1LbUZK-137" value="" style="edgeStyle=orthogonalEdgeStyle;rounded=0;orthogonalLoop=1;jettySize=auto;html=1;" parent="1" source="Bi03TDWfDMKd8-1LbUZK-128" target="Bi03TDWfDMKd8-1LbUZK-136" edge="1">
          <mxGeometry relative="1" as="geometry" />
        </mxCell>
        <mxCell id="Bi03TDWfDMKd8-1LbUZK-128" value="&lt;font style=&quot;font-size: 11px; line-height: 90%;&quot;&gt;Er der en fjene indefor rækkevide&lt;/font&gt;" style="rhombus;whiteSpace=wrap;html=1;align=center;" parent="1" vertex="1">
          <mxGeometry x="1630" y="-363.81" width="106" height="97.5" as="geometry" />
        </mxCell>
        <mxCell id="Bi03TDWfDMKd8-1LbUZK-134" value="" style="endArrow=none;html=1;rounded=0;entryX=0.5;entryY=1;entryDx=0;entryDy=0;" parent="1" target="Bi03TDWfDMKd8-1LbUZK-128" edge="1">
          <mxGeometry width="50" height="50" relative="1" as="geometry">
            <mxPoint x="1600" y="-240.06" as="sourcePoint" />
            <mxPoint x="1560" y="-40.06" as="targetPoint" />
            <Array as="points">
              <mxPoint x="1683" y="-240.06" />
            </Array>
          </mxGeometry>
        </mxCell>
        <mxCell id="Bi03TDWfDMKd8-1LbUZK-135" value="nej" style="text;html=1;align=center;verticalAlign=middle;whiteSpace=wrap;rounded=0;" parent="1" vertex="1">
          <mxGeometry x="1640" y="-265.06" width="60" height="30" as="geometry" />
        </mxCell>
        <mxCell id="Bi03TDWfDMKd8-1LbUZK-149" value="" style="edgeStyle=orthogonalEdgeStyle;rounded=0;orthogonalLoop=1;jettySize=auto;html=1;" parent="1" source="Bi03TDWfDMKd8-1LbUZK-136" target="Bi03TDWfDMKd8-1LbUZK-148" edge="1">
          <mxGeometry relative="1" as="geometry" />
        </mxCell>
        <mxCell id="Bi03TDWfDMKd8-1LbUZK-136" value="er fjenden i live" style="rhombus;whiteSpace=wrap;html=1;align=center;" parent="1" vertex="1">
          <mxGeometry x="1770" y="-363.81" width="106" height="97.5" as="geometry" />
        </mxCell>
        <mxCell id="Bi03TDWfDMKd8-1LbUZK-144" value="" style="endArrow=none;html=1;rounded=0;exitX=0.667;exitY=0.833;exitDx=0;exitDy=0;exitPerimeter=0;entryX=0.5;entryY=1;entryDx=0;entryDy=0;" parent="1" source="Bi03TDWfDMKd8-1LbUZK-135" target="Bi03TDWfDMKd8-1LbUZK-136" edge="1">
          <mxGeometry width="50" height="50" relative="1" as="geometry">
            <mxPoint x="1790" y="-230.06" as="sourcePoint" />
            <mxPoint x="1840" y="-280.06" as="targetPoint" />
            <Array as="points">
              <mxPoint x="1823" y="-240.06" />
            </Array>
          </mxGeometry>
        </mxCell>
        <mxCell id="Bi03TDWfDMKd8-1LbUZK-145" value="nej" style="text;html=1;align=center;verticalAlign=middle;whiteSpace=wrap;rounded=0;" parent="1" vertex="1">
          <mxGeometry x="1780" y="-265.06" width="60" height="30" as="geometry" />
        </mxCell>
        <mxCell id="Bi03TDWfDMKd8-1LbUZK-155" value="" style="edgeStyle=orthogonalEdgeStyle;rounded=0;orthogonalLoop=1;jettySize=auto;html=1;" parent="1" source="Bi03TDWfDMKd8-1LbUZK-148" target="Bi03TDWfDMKd8-1LbUZK-154" edge="1">
          <mxGeometry relative="1" as="geometry" />
        </mxCell>
        <mxCell id="Bi03TDWfDMKd8-1LbUZK-148" value="Ændre fjendens heath med -10" style="whiteSpace=wrap;html=1;" parent="1" vertex="1">
          <mxGeometry x="1900" y="-345.06" width="120" height="60" as="geometry" />
        </mxCell>
        <mxCell id="Bi03TDWfDMKd8-1LbUZK-158" style="edgeStyle=orthogonalEdgeStyle;rounded=0;orthogonalLoop=1;jettySize=auto;html=1;exitX=1;exitY=0.5;exitDx=0;exitDy=0;entryX=0;entryY=0.5;entryDx=0;entryDy=0;" parent="1" source="Bi03TDWfDMKd8-1LbUZK-154" target="Bi03TDWfDMKd8-1LbUZK-157" edge="1">
          <mxGeometry relative="1" as="geometry" />
        </mxCell>
        <mxCell id="Bi03TDWfDMKd8-1LbUZK-154" value="Har fjenden =&amp;lt; 0 heath" style="rhombus;whiteSpace=wrap;html=1;" parent="1" vertex="1">
          <mxGeometry x="2050" y="-365.06" width="110" height="100" as="geometry" />
        </mxCell>
        <mxCell id="Bi03TDWfDMKd8-1LbUZK-156" value="" style="endArrow=none;html=1;rounded=0;entryX=0.5;entryY=1;entryDx=0;entryDy=0;" parent="1" target="Bi03TDWfDMKd8-1LbUZK-154" edge="1">
          <mxGeometry width="50" height="50" relative="1" as="geometry">
            <mxPoint x="1760" y="-240.06" as="sourcePoint" />
            <mxPoint x="2140" y="-190.06" as="targetPoint" />
            <Array as="points">
              <mxPoint x="2105" y="-240.06" />
            </Array>
          </mxGeometry>
        </mxCell>
        <mxCell id="Bi03TDWfDMKd8-1LbUZK-157" value="Fjenden dør" style="rounded=0;whiteSpace=wrap;html=1;" parent="1" vertex="1">
          <mxGeometry x="2200" y="-345.06" width="120" height="60" as="geometry" />
        </mxCell>
        <mxCell id="Bi03TDWfDMKd8-1LbUZK-159" value="" style="endArrow=none;html=1;rounded=0;entryX=0.5;entryY=1;entryDx=0;entryDy=0;" parent="1" target="Bi03TDWfDMKd8-1LbUZK-157" edge="1">
          <mxGeometry width="50" height="50" relative="1" as="geometry">
            <mxPoint x="2100" y="-240.06" as="sourcePoint" />
            <mxPoint x="2180" y="-260.06" as="targetPoint" />
            <Array as="points">
              <mxPoint x="2260" y="-240.06" />
            </Array>
          </mxGeometry>
        </mxCell>
        <mxCell id="Bi03TDWfDMKd8-1LbUZK-160" value="ja" style="text;html=1;align=center;verticalAlign=middle;whiteSpace=wrap;rounded=0;" parent="1" vertex="1">
          <mxGeometry x="1720" y="-340.06" width="60" height="30" as="geometry" />
        </mxCell>
        <mxCell id="Bi03TDWfDMKd8-1LbUZK-161" value="ja" style="text;html=1;align=center;verticalAlign=middle;whiteSpace=wrap;rounded=0;" parent="1" vertex="1">
          <mxGeometry x="1860" y="-340.06" width="60" height="30" as="geometry" />
        </mxCell>
        <mxCell id="Bi03TDWfDMKd8-1LbUZK-162" value="ja" style="text;html=1;align=center;verticalAlign=middle;whiteSpace=wrap;rounded=0;" parent="1" vertex="1">
          <mxGeometry x="2150" y="-340.06" width="60" height="30" as="geometry" />
        </mxCell>
        <mxCell id="Bi03TDWfDMKd8-1LbUZK-163" value="nej" style="text;html=1;align=center;verticalAlign=middle;whiteSpace=wrap;rounded=0;" parent="1" vertex="1">
          <mxGeometry x="2060" y="-270.06" width="60" height="30" as="geometry" />
        </mxCell>
        <mxCell id="Bi03TDWfDMKd8-1LbUZK-164" value="bliver karakteren angrebet" style="rhombus;whiteSpace=wrap;html=1;" parent="1" vertex="1">
          <mxGeometry x="1315" y="-700" width="110" height="90" as="geometry" />
        </mxCell>
        <mxCell id="Bi03TDWfDMKd8-1LbUZK-166" value="nej" style="text;html=1;align=center;verticalAlign=middle;whiteSpace=wrap;rounded=0;" parent="1" vertex="1">
          <mxGeometry x="1320" y="-614" width="60" height="30" as="geometry" />
        </mxCell>
        <mxCell id="cDbWXvLrCpcBQiEZtTeX-5" style="edgeStyle=orthogonalEdgeStyle;rounded=0;orthogonalLoop=1;jettySize=auto;html=1;exitX=1;exitY=0.5;exitDx=0;exitDy=0;entryX=0;entryY=0.5;entryDx=0;entryDy=0;" edge="1" parent="1" source="cDbWXvLrCpcBQiEZtTeX-1" target="cDbWXvLrCpcBQiEZtTeX-2">
          <mxGeometry relative="1" as="geometry" />
        </mxCell>
        <mxCell id="cDbWXvLrCpcBQiEZtTeX-10" style="edgeStyle=orthogonalEdgeStyle;rounded=0;orthogonalLoop=1;jettySize=auto;html=1;exitX=0.5;exitY=1;exitDx=0;exitDy=0;entryX=0.5;entryY=0;entryDx=0;entryDy=0;" edge="1" parent="1" source="cDbWXvLrCpcBQiEZtTeX-1" target="01Cn6UUHRZPfgiZ1-aKv-27">
          <mxGeometry relative="1" as="geometry" />
        </mxCell>
        <mxCell id="cDbWXvLrCpcBQiEZtTeX-1" value="Bliver spil trykket" style="rhombus;whiteSpace=wrap;html=1;" vertex="1" parent="1">
          <mxGeometry x="380" y="-1060" width="80" height="80" as="geometry" />
        </mxCell>
        <mxCell id="cDbWXvLrCpcBQiEZtTeX-4" style="edgeStyle=orthogonalEdgeStyle;rounded=0;orthogonalLoop=1;jettySize=auto;html=1;exitX=1;exitY=0;exitDx=0;exitDy=0;entryX=0.5;entryY=1;entryDx=0;entryDy=0;" edge="1" parent="1" source="cDbWXvLrCpcBQiEZtTeX-2" target="cDbWXvLrCpcBQiEZtTeX-3">
          <mxGeometry relative="1" as="geometry">
            <Array as="points">
              <mxPoint x="550" y="-1060" />
              <mxPoint x="570" y="-1060" />
            </Array>
          </mxGeometry>
        </mxCell>
        <mxCell id="cDbWXvLrCpcBQiEZtTeX-7" style="edgeStyle=orthogonalEdgeStyle;rounded=0;orthogonalLoop=1;jettySize=auto;html=1;exitX=1;exitY=1;exitDx=0;exitDy=0;entryX=0;entryY=0;entryDx=0;entryDy=0;" edge="1" parent="1" source="cDbWXvLrCpcBQiEZtTeX-2" target="cDbWXvLrCpcBQiEZtTeX-6">
          <mxGeometry relative="1" as="geometry" />
        </mxCell>
        <mxCell id="cDbWXvLrCpcBQiEZtTeX-2" value="Bliver afslut trykket" style="rhombus;whiteSpace=wrap;html=1;" vertex="1" parent="1">
          <mxGeometry x="490" y="-1060" width="80" height="80" as="geometry" />
        </mxCell>
        <mxCell id="cDbWXvLrCpcBQiEZtTeX-3" value="Spillet slutter" style="ellipse;whiteSpace=wrap;html=1;" vertex="1" parent="1">
          <mxGeometry x="510" y="-1160" width="120" height="80" as="geometry" />
        </mxCell>
        <mxCell id="cDbWXvLrCpcBQiEZtTeX-6" value="Bliver options trykket" style="rhombus;whiteSpace=wrap;html=1;" vertex="1" parent="1">
          <mxGeometry x="560" y="-1005" width="80" height="80" as="geometry" />
        </mxCell>
        <mxCell id="cDbWXvLrCpcBQiEZtTeX-18" style="edgeStyle=orthogonalEdgeStyle;rounded=0;orthogonalLoop=1;jettySize=auto;html=1;exitX=1;exitY=0.5;exitDx=0;exitDy=0;entryX=0;entryY=0.5;entryDx=0;entryDy=0;" edge="1" parent="1" source="cDbWXvLrCpcBQiEZtTeX-8" target="cDbWXvLrCpcBQiEZtTeX-12">
          <mxGeometry relative="1" as="geometry" />
        </mxCell>
        <mxCell id="cDbWXvLrCpcBQiEZtTeX-35" style="edgeStyle=orthogonalEdgeStyle;rounded=0;orthogonalLoop=1;jettySize=auto;html=1;exitX=0;exitY=0.5;exitDx=0;exitDy=0;entryX=1;entryY=0.5;entryDx=0;entryDy=0;" edge="1" parent="1" source="cDbWXvLrCpcBQiEZtTeX-8" target="cDbWXvLrCpcBQiEZtTeX-32">
          <mxGeometry relative="1" as="geometry" />
        </mxCell>
        <mxCell id="cDbWXvLrCpcBQiEZtTeX-8" value="Bliver a trykket" style="rhombus;whiteSpace=wrap;html=1;" vertex="1" parent="1">
          <mxGeometry x="380" y="-880" width="80" height="80" as="geometry" />
        </mxCell>
        <mxCell id="cDbWXvLrCpcBQiEZtTeX-19" style="edgeStyle=orthogonalEdgeStyle;rounded=0;orthogonalLoop=1;jettySize=auto;html=1;exitX=1;exitY=0.5;exitDx=0;exitDy=0;entryX=0;entryY=0.5;entryDx=0;entryDy=0;" edge="1" parent="1" source="cDbWXvLrCpcBQiEZtTeX-12" target="cDbWXvLrCpcBQiEZtTeX-13">
          <mxGeometry relative="1" as="geometry" />
        </mxCell>
        <mxCell id="cDbWXvLrCpcBQiEZtTeX-34" style="edgeStyle=orthogonalEdgeStyle;rounded=0;orthogonalLoop=1;jettySize=auto;html=1;exitX=0;exitY=1;exitDx=0;exitDy=0;entryX=0.75;entryY=0;entryDx=0;entryDy=0;" edge="1" parent="1" source="cDbWXvLrCpcBQiEZtTeX-12" target="cDbWXvLrCpcBQiEZtTeX-33">
          <mxGeometry relative="1" as="geometry" />
        </mxCell>
        <mxCell id="cDbWXvLrCpcBQiEZtTeX-12" value="Bliver d trykket" style="rhombus;whiteSpace=wrap;html=1;" vertex="1" parent="1">
          <mxGeometry x="480" y="-880" width="80" height="80" as="geometry" />
        </mxCell>
        <mxCell id="cDbWXvLrCpcBQiEZtTeX-20" style="edgeStyle=orthogonalEdgeStyle;rounded=0;orthogonalLoop=1;jettySize=auto;html=1;exitX=1;exitY=0.5;exitDx=0;exitDy=0;entryX=0;entryY=0.5;entryDx=0;entryDy=0;" edge="1" parent="1" source="cDbWXvLrCpcBQiEZtTeX-13" target="cDbWXvLrCpcBQiEZtTeX-14">
          <mxGeometry relative="1" as="geometry" />
        </mxCell>
        <mxCell id="cDbWXvLrCpcBQiEZtTeX-38" style="edgeStyle=orthogonalEdgeStyle;rounded=0;orthogonalLoop=1;jettySize=auto;html=1;exitX=0.5;exitY=1;exitDx=0;exitDy=0;entryX=0.5;entryY=0;entryDx=0;entryDy=0;" edge="1" parent="1" source="cDbWXvLrCpcBQiEZtTeX-13" target="cDbWXvLrCpcBQiEZtTeX-36">
          <mxGeometry relative="1" as="geometry" />
        </mxCell>
        <mxCell id="cDbWXvLrCpcBQiEZtTeX-13" value="Bliver x trykket" style="rhombus;whiteSpace=wrap;html=1;" vertex="1" parent="1">
          <mxGeometry x="590" y="-880" width="80" height="80" as="geometry" />
        </mxCell>
        <mxCell id="cDbWXvLrCpcBQiEZtTeX-21" style="edgeStyle=orthogonalEdgeStyle;rounded=0;orthogonalLoop=1;jettySize=auto;html=1;exitX=1;exitY=0.5;exitDx=0;exitDy=0;entryX=0;entryY=0.5;entryDx=0;entryDy=0;" edge="1" parent="1" source="cDbWXvLrCpcBQiEZtTeX-14" target="cDbWXvLrCpcBQiEZtTeX-15">
          <mxGeometry relative="1" as="geometry" />
        </mxCell>
        <mxCell id="cDbWXvLrCpcBQiEZtTeX-58" style="edgeStyle=orthogonalEdgeStyle;rounded=0;orthogonalLoop=1;jettySize=auto;html=1;exitX=0.5;exitY=0;exitDx=0;exitDy=0;entryX=0.5;entryY=1;entryDx=0;entryDy=0;" edge="1" parent="1" source="cDbWXvLrCpcBQiEZtTeX-14" target="cDbWXvLrCpcBQiEZtTeX-57">
          <mxGeometry relative="1" as="geometry" />
        </mxCell>
        <mxCell id="cDbWXvLrCpcBQiEZtTeX-14" value="Bliver a trykket to gange i streg" style="rhombus;whiteSpace=wrap;html=1;" vertex="1" parent="1">
          <mxGeometry x="690" y="-880" width="80" height="80" as="geometry" />
        </mxCell>
        <mxCell id="cDbWXvLrCpcBQiEZtTeX-22" style="edgeStyle=orthogonalEdgeStyle;rounded=0;orthogonalLoop=1;jettySize=auto;html=1;exitX=1;exitY=0.5;exitDx=0;exitDy=0;entryX=0;entryY=0.5;entryDx=0;entryDy=0;" edge="1" parent="1" source="cDbWXvLrCpcBQiEZtTeX-15" target="cDbWXvLrCpcBQiEZtTeX-16">
          <mxGeometry relative="1" as="geometry" />
        </mxCell>
        <mxCell id="cDbWXvLrCpcBQiEZtTeX-60" style="edgeStyle=orthogonalEdgeStyle;rounded=0;orthogonalLoop=1;jettySize=auto;html=1;exitX=0.5;exitY=1;exitDx=0;exitDy=0;entryX=0.5;entryY=0;entryDx=0;entryDy=0;" edge="1" parent="1" source="cDbWXvLrCpcBQiEZtTeX-15" target="cDbWXvLrCpcBQiEZtTeX-59">
          <mxGeometry relative="1" as="geometry" />
        </mxCell>
        <mxCell id="cDbWXvLrCpcBQiEZtTeX-15" value="Bliver d trykket to gange i streg" style="rhombus;whiteSpace=wrap;html=1;" vertex="1" parent="1">
          <mxGeometry x="790" y="-880" width="80" height="80" as="geometry" />
        </mxCell>
        <mxCell id="cDbWXvLrCpcBQiEZtTeX-23" style="edgeStyle=orthogonalEdgeStyle;rounded=0;orthogonalLoop=1;jettySize=auto;html=1;exitX=1;exitY=0.5;exitDx=0;exitDy=0;entryX=0;entryY=0.5;entryDx=0;entryDy=0;" edge="1" parent="1" source="cDbWXvLrCpcBQiEZtTeX-16" target="cDbWXvLrCpcBQiEZtTeX-17">
          <mxGeometry relative="1" as="geometry" />
        </mxCell>
        <mxCell id="cDbWXvLrCpcBQiEZtTeX-65" style="edgeStyle=orthogonalEdgeStyle;rounded=0;orthogonalLoop=1;jettySize=auto;html=1;exitX=0.5;exitY=1;exitDx=0;exitDy=0;entryX=0.5;entryY=0;entryDx=0;entryDy=0;" edge="1" parent="1" source="cDbWXvLrCpcBQiEZtTeX-16" target="cDbWXvLrCpcBQiEZtTeX-63">
          <mxGeometry relative="1" as="geometry" />
        </mxCell>
        <mxCell id="cDbWXvLrCpcBQiEZtTeX-16" value="Bliver mellemrum trykket" style="rhombus;whiteSpace=wrap;html=1;" vertex="1" parent="1">
          <mxGeometry x="890" y="-880" width="80" height="80" as="geometry" />
        </mxCell>
        <mxCell id="cDbWXvLrCpcBQiEZtTeX-30" style="edgeStyle=orthogonalEdgeStyle;rounded=0;orthogonalLoop=1;jettySize=auto;html=1;exitX=0.5;exitY=0;exitDx=0;exitDy=0;entryX=0;entryY=0.5;entryDx=0;entryDy=0;" edge="1" parent="1" source="cDbWXvLrCpcBQiEZtTeX-17" target="cDbWXvLrCpcBQiEZtTeX-1">
          <mxGeometry relative="1" as="geometry">
            <Array as="points">
              <mxPoint x="1030" y="-1170" />
              <mxPoint x="350" y="-1170" />
              <mxPoint x="350" y="-1020" />
            </Array>
          </mxGeometry>
        </mxCell>
        <mxCell id="cDbWXvLrCpcBQiEZtTeX-81" style="edgeStyle=orthogonalEdgeStyle;rounded=0;orthogonalLoop=1;jettySize=auto;html=1;exitX=1;exitY=0.5;exitDx=0;exitDy=0;entryX=0.5;entryY=0;entryDx=0;entryDy=0;" edge="1" parent="1" source="cDbWXvLrCpcBQiEZtTeX-17" target="cDbWXvLrCpcBQiEZtTeX-8">
          <mxGeometry relative="1" as="geometry">
            <Array as="points">
              <mxPoint x="1090" y="-840" />
              <mxPoint x="1090" y="-890" />
              <mxPoint x="420" y="-890" />
            </Array>
          </mxGeometry>
        </mxCell>
        <mxCell id="cDbWXvLrCpcBQiEZtTeX-17" value="Bliver escape trykket" style="rhombus;whiteSpace=wrap;html=1;" vertex="1" parent="1">
          <mxGeometry x="990" y="-880" width="80" height="80" as="geometry" />
        </mxCell>
        <mxCell id="cDbWXvLrCpcBQiEZtTeX-24" value="Nej" style="text;html=1;align=center;verticalAlign=middle;whiteSpace=wrap;rounded=0;" vertex="1" parent="1">
          <mxGeometry x="440" y="-870" width="60" height="30" as="geometry" />
        </mxCell>
        <mxCell id="cDbWXvLrCpcBQiEZtTeX-25" value="Nej" style="text;html=1;align=center;verticalAlign=middle;whiteSpace=wrap;rounded=0;" vertex="1" parent="1">
          <mxGeometry x="550" y="-870" width="60" height="30" as="geometry" />
        </mxCell>
        <mxCell id="cDbWXvLrCpcBQiEZtTeX-26" value="Nej" style="text;html=1;align=center;verticalAlign=middle;whiteSpace=wrap;rounded=0;" vertex="1" parent="1">
          <mxGeometry x="650" y="-870" width="60" height="30" as="geometry" />
        </mxCell>
        <mxCell id="cDbWXvLrCpcBQiEZtTeX-27" value="Nej" style="text;html=1;align=center;verticalAlign=middle;whiteSpace=wrap;rounded=0;" vertex="1" parent="1">
          <mxGeometry x="750" y="-870" width="60" height="30" as="geometry" />
        </mxCell>
        <mxCell id="cDbWXvLrCpcBQiEZtTeX-28" value="Nej" style="text;html=1;align=center;verticalAlign=middle;whiteSpace=wrap;rounded=0;" vertex="1" parent="1">
          <mxGeometry x="850" y="-870" width="60" height="30" as="geometry" />
        </mxCell>
        <mxCell id="cDbWXvLrCpcBQiEZtTeX-29" value="Nej" style="text;html=1;align=center;verticalAlign=middle;whiteSpace=wrap;rounded=0;" vertex="1" parent="1">
          <mxGeometry x="950" y="-870" width="60" height="30" as="geometry" />
        </mxCell>
        <mxCell id="cDbWXvLrCpcBQiEZtTeX-31" value="Ja" style="text;html=1;align=center;verticalAlign=middle;whiteSpace=wrap;rounded=0;" vertex="1" parent="1">
          <mxGeometry x="990" y="-950" width="60" height="30" as="geometry" />
        </mxCell>
        <mxCell id="cDbWXvLrCpcBQiEZtTeX-45" style="edgeStyle=orthogonalEdgeStyle;rounded=0;orthogonalLoop=1;jettySize=auto;html=1;exitX=0.5;exitY=1;exitDx=0;exitDy=0;entryX=0;entryY=1;entryDx=0;entryDy=0;" edge="1" parent="1" source="cDbWXvLrCpcBQiEZtTeX-32" target="cDbWXvLrCpcBQiEZtTeX-13">
          <mxGeometry relative="1" as="geometry">
            <mxPoint x="550" y="-610" as="targetPoint" />
            <Array as="points">
              <mxPoint x="300" y="-710" />
              <mxPoint x="560" y="-710" />
              <mxPoint x="560" y="-820" />
            </Array>
          </mxGeometry>
        </mxCell>
        <mxCell id="cDbWXvLrCpcBQiEZtTeX-32" value="Karakter går til venstre" style="rounded=0;whiteSpace=wrap;html=1;" vertex="1" parent="1">
          <mxGeometry x="240" y="-870" width="120" height="60" as="geometry" />
        </mxCell>
        <mxCell id="cDbWXvLrCpcBQiEZtTeX-42" style="edgeStyle=orthogonalEdgeStyle;rounded=0;orthogonalLoop=1;jettySize=auto;html=1;exitX=1;exitY=0.5;exitDx=0;exitDy=0;entryX=0;entryY=1;entryDx=0;entryDy=0;" edge="1" parent="1" source="cDbWXvLrCpcBQiEZtTeX-33">
          <mxGeometry relative="1" as="geometry">
            <mxPoint x="525" y="-760" as="sourcePoint" />
            <mxPoint x="615" y="-820" as="targetPoint" />
            <Array as="points">
              <mxPoint x="525" y="-760" />
              <mxPoint x="525" y="-800" />
              <mxPoint x="615" y="-800" />
            </Array>
          </mxGeometry>
        </mxCell>
        <mxCell id="cDbWXvLrCpcBQiEZtTeX-33" value="Karakter går til højre" style="rounded=0;whiteSpace=wrap;html=1;" vertex="1" parent="1">
          <mxGeometry x="400" y="-790" width="120" height="60" as="geometry" />
        </mxCell>
        <mxCell id="cDbWXvLrCpcBQiEZtTeX-40" style="edgeStyle=orthogonalEdgeStyle;rounded=0;orthogonalLoop=1;jettySize=auto;html=1;exitX=0.5;exitY=1;exitDx=0;exitDy=0;entryX=0.5;entryY=0;entryDx=0;entryDy=0;" edge="1" parent="1" source="cDbWXvLrCpcBQiEZtTeX-36" target="cDbWXvLrCpcBQiEZtTeX-39">
          <mxGeometry relative="1" as="geometry" />
        </mxCell>
        <mxCell id="cDbWXvLrCpcBQiEZtTeX-36" value="Karakter angriber" style="rounded=0;whiteSpace=wrap;html=1;" vertex="1" parent="1">
          <mxGeometry x="570" y="-790" width="120" height="60" as="geometry" />
        </mxCell>
        <mxCell id="cDbWXvLrCpcBQiEZtTeX-46" style="edgeStyle=orthogonalEdgeStyle;rounded=0;orthogonalLoop=1;jettySize=auto;html=1;exitX=0.5;exitY=1;exitDx=0;exitDy=0;entryX=0.5;entryY=0;entryDx=0;entryDy=0;" edge="1" parent="1" source="cDbWXvLrCpcBQiEZtTeX-39" target="cDbWXvLrCpcBQiEZtTeX-41">
          <mxGeometry relative="1" as="geometry" />
        </mxCell>
        <mxCell id="cDbWXvLrCpcBQiEZtTeX-54" style="edgeStyle=orthogonalEdgeStyle;rounded=0;orthogonalLoop=1;jettySize=auto;html=1;exitX=1;exitY=0.5;exitDx=0;exitDy=0;entryX=0.5;entryY=1;entryDx=0;entryDy=0;" edge="1" parent="1" source="cDbWXvLrCpcBQiEZtTeX-39" target="cDbWXvLrCpcBQiEZtTeX-14">
          <mxGeometry relative="1" as="geometry" />
        </mxCell>
        <mxCell id="cDbWXvLrCpcBQiEZtTeX-39" value="Bliver fjende ramt" style="rhombus;whiteSpace=wrap;html=1;" vertex="1" parent="1">
          <mxGeometry x="590" y="-710" width="80" height="80" as="geometry" />
        </mxCell>
        <mxCell id="cDbWXvLrCpcBQiEZtTeX-50" style="edgeStyle=orthogonalEdgeStyle;rounded=0;orthogonalLoop=1;jettySize=auto;html=1;exitX=0.5;exitY=1;exitDx=0;exitDy=0;entryX=0.5;entryY=0;entryDx=0;entryDy=0;" edge="1" parent="1" source="cDbWXvLrCpcBQiEZtTeX-41" target="cDbWXvLrCpcBQiEZtTeX-47">
          <mxGeometry relative="1" as="geometry" />
        </mxCell>
        <mxCell id="cDbWXvLrCpcBQiEZtTeX-41" value="Fjende tager skade" style="rounded=0;whiteSpace=wrap;html=1;" vertex="1" parent="1">
          <mxGeometry x="570" y="-610" width="120" height="60" as="geometry" />
        </mxCell>
        <mxCell id="cDbWXvLrCpcBQiEZtTeX-49" style="edgeStyle=orthogonalEdgeStyle;rounded=0;orthogonalLoop=1;jettySize=auto;html=1;exitX=0.5;exitY=1;exitDx=0;exitDy=0;entryX=0.5;entryY=0;entryDx=0;entryDy=0;" edge="1" parent="1" source="cDbWXvLrCpcBQiEZtTeX-47" target="cDbWXvLrCpcBQiEZtTeX-48">
          <mxGeometry relative="1" as="geometry" />
        </mxCell>
        <mxCell id="cDbWXvLrCpcBQiEZtTeX-53" style="edgeStyle=orthogonalEdgeStyle;rounded=0;orthogonalLoop=1;jettySize=auto;html=1;exitX=1;exitY=0.5;exitDx=0;exitDy=0;entryX=0.5;entryY=1;entryDx=0;entryDy=0;" edge="1" parent="1" source="cDbWXvLrCpcBQiEZtTeX-47" target="cDbWXvLrCpcBQiEZtTeX-14">
          <mxGeometry relative="1" as="geometry">
            <mxPoint x="740" y="-780" as="targetPoint" />
          </mxGeometry>
        </mxCell>
        <mxCell id="cDbWXvLrCpcBQiEZtTeX-47" value="Har fjenden liv tilbage" style="rhombus;whiteSpace=wrap;html=1;" vertex="1" parent="1">
          <mxGeometry x="590" y="-530" width="80" height="80" as="geometry" />
        </mxCell>
        <mxCell id="cDbWXvLrCpcBQiEZtTeX-48" value="Fjenden dør" style="rounded=0;whiteSpace=wrap;html=1;" vertex="1" parent="1">
          <mxGeometry x="570" y="-430" width="120" height="60" as="geometry" />
        </mxCell>
        <mxCell id="cDbWXvLrCpcBQiEZtTeX-51" value="Ja" style="text;html=1;align=center;verticalAlign=middle;whiteSpace=wrap;rounded=0;" vertex="1" parent="1">
          <mxGeometry x="620" y="-640" width="60" height="30" as="geometry" />
        </mxCell>
        <mxCell id="cDbWXvLrCpcBQiEZtTeX-52" value="Nej" style="text;html=1;align=center;verticalAlign=middle;whiteSpace=wrap;rounded=0;" vertex="1" parent="1">
          <mxGeometry x="620" y="-459.56" width="60" height="30" as="geometry" />
        </mxCell>
        <mxCell id="cDbWXvLrCpcBQiEZtTeX-55" value="Nej" style="text;html=1;align=center;verticalAlign=middle;whiteSpace=wrap;rounded=0;" vertex="1" parent="1">
          <mxGeometry x="670" y="-690" width="60" height="30" as="geometry" />
        </mxCell>
        <mxCell id="cDbWXvLrCpcBQiEZtTeX-56" value="Ja" style="text;html=1;align=center;verticalAlign=middle;whiteSpace=wrap;rounded=0;" vertex="1" parent="1">
          <mxGeometry x="660" y="-515.06" width="60" height="30" as="geometry" />
        </mxCell>
        <mxCell id="cDbWXvLrCpcBQiEZtTeX-75" style="edgeStyle=orthogonalEdgeStyle;rounded=0;orthogonalLoop=1;jettySize=auto;html=1;exitX=0.5;exitY=0;exitDx=0;exitDy=0;entryX=0.5;entryY=0;entryDx=0;entryDy=0;" edge="1" parent="1" source="cDbWXvLrCpcBQiEZtTeX-57" target="cDbWXvLrCpcBQiEZtTeX-15">
          <mxGeometry relative="1" as="geometry" />
        </mxCell>
        <mxCell id="cDbWXvLrCpcBQiEZtTeX-57" value="Karakter dasher til venstre" style="rounded=0;whiteSpace=wrap;html=1;" vertex="1" parent="1">
          <mxGeometry x="670" y="-965" width="120" height="60" as="geometry" />
        </mxCell>
        <mxCell id="cDbWXvLrCpcBQiEZtTeX-76" style="edgeStyle=orthogonalEdgeStyle;rounded=0;orthogonalLoop=1;jettySize=auto;html=1;exitX=0.5;exitY=1;exitDx=0;exitDy=0;entryX=0;entryY=1;entryDx=0;entryDy=0;" edge="1" parent="1" source="cDbWXvLrCpcBQiEZtTeX-59" target="cDbWXvLrCpcBQiEZtTeX-16">
          <mxGeometry relative="1" as="geometry">
            <Array as="points">
              <mxPoint x="820" y="-695" />
              <mxPoint x="890" y="-695" />
              <mxPoint x="890" y="-820" />
            </Array>
          </mxGeometry>
        </mxCell>
        <mxCell id="cDbWXvLrCpcBQiEZtTeX-59" value="Karakter dasher til højre" style="rounded=0;whiteSpace=wrap;html=1;" vertex="1" parent="1">
          <mxGeometry x="760" y="-775" width="120" height="60" as="geometry" />
        </mxCell>
        <mxCell id="cDbWXvLrCpcBQiEZtTeX-61" value="Karakter hopper" style="rounded=0;whiteSpace=wrap;html=1;" vertex="1" parent="1">
          <mxGeometry x="870" y="-560.06" width="120" height="60" as="geometry" />
        </mxCell>
        <mxCell id="cDbWXvLrCpcBQiEZtTeX-66" style="edgeStyle=orthogonalEdgeStyle;rounded=0;orthogonalLoop=1;jettySize=auto;html=1;exitX=1;exitY=0.5;exitDx=0;exitDy=0;entryX=0;entryY=0.5;entryDx=0;entryDy=0;" edge="1" parent="1" source="cDbWXvLrCpcBQiEZtTeX-63" target="cDbWXvLrCpcBQiEZtTeX-64">
          <mxGeometry relative="1" as="geometry" />
        </mxCell>
        <mxCell id="cDbWXvLrCpcBQiEZtTeX-69" style="edgeStyle=orthogonalEdgeStyle;rounded=0;orthogonalLoop=1;jettySize=auto;html=1;exitX=0.5;exitY=1;exitDx=0;exitDy=0;entryX=0.5;entryY=0;entryDx=0;entryDy=0;" edge="1" parent="1" source="cDbWXvLrCpcBQiEZtTeX-63" target="cDbWXvLrCpcBQiEZtTeX-61">
          <mxGeometry relative="1" as="geometry" />
        </mxCell>
        <mxCell id="cDbWXvLrCpcBQiEZtTeX-63" value="Er karakteren i luften" style="rhombus;whiteSpace=wrap;html=1;" vertex="1" parent="1">
          <mxGeometry x="890" y="-770" width="80" height="80" as="geometry" />
        </mxCell>
        <mxCell id="cDbWXvLrCpcBQiEZtTeX-67" style="edgeStyle=orthogonalEdgeStyle;rounded=0;orthogonalLoop=1;jettySize=auto;html=1;exitX=0.5;exitY=0;exitDx=0;exitDy=0;entryX=0.5;entryY=1;entryDx=0;entryDy=0;" edge="1" parent="1" source="cDbWXvLrCpcBQiEZtTeX-64" target="cDbWXvLrCpcBQiEZtTeX-17">
          <mxGeometry relative="1" as="geometry" />
        </mxCell>
        <mxCell id="cDbWXvLrCpcBQiEZtTeX-68" style="edgeStyle=orthogonalEdgeStyle;rounded=0;orthogonalLoop=1;jettySize=auto;html=1;exitX=0.5;exitY=1;exitDx=0;exitDy=0;entryX=0.5;entryY=0;entryDx=0;entryDy=0;" edge="1" parent="1" source="cDbWXvLrCpcBQiEZtTeX-64" target="cDbWXvLrCpcBQiEZtTeX-61">
          <mxGeometry relative="1" as="geometry" />
        </mxCell>
        <mxCell id="cDbWXvLrCpcBQiEZtTeX-64" value="Har karakteren hoppet i luften før&amp;nbsp;" style="rhombus;whiteSpace=wrap;html=1;" vertex="1" parent="1">
          <mxGeometry x="980" y="-770" width="80" height="80" as="geometry" />
        </mxCell>
        <mxCell id="cDbWXvLrCpcBQiEZtTeX-70" value="Nej" style="text;html=1;align=center;verticalAlign=middle;whiteSpace=wrap;rounded=0;" vertex="1" parent="1">
          <mxGeometry x="880" y="-680" width="60" height="30" as="geometry" />
        </mxCell>
        <mxCell id="cDbWXvLrCpcBQiEZtTeX-71" value="Nej" style="text;html=1;align=center;verticalAlign=middle;whiteSpace=wrap;rounded=0;" vertex="1" parent="1">
          <mxGeometry x="1010" y="-680" width="60" height="30" as="geometry" />
        </mxCell>
        <mxCell id="cDbWXvLrCpcBQiEZtTeX-72" value="Ja" style="text;html=1;align=center;verticalAlign=middle;whiteSpace=wrap;rounded=0;" vertex="1" parent="1">
          <mxGeometry x="950" y="-760" width="60" height="30" as="geometry" />
        </mxCell>
        <mxCell id="cDbWXvLrCpcBQiEZtTeX-74" value="Ja" style="text;html=1;align=center;verticalAlign=middle;whiteSpace=wrap;rounded=0;" vertex="1" parent="1">
          <mxGeometry x="1010" y="-800" width="60" height="30" as="geometry" />
        </mxCell>
        <mxCell id="cDbWXvLrCpcBQiEZtTeX-77" value="Ja" style="text;html=1;align=center;verticalAlign=middle;whiteSpace=wrap;rounded=0;" vertex="1" parent="1">
          <mxGeometry x="710" y="-910" width="60" height="30" as="geometry" />
        </mxCell>
        <mxCell id="cDbWXvLrCpcBQiEZtTeX-78" value="Ja" style="text;html=1;align=center;verticalAlign=middle;whiteSpace=wrap;rounded=0;" vertex="1" parent="1">
          <mxGeometry x="780" y="-810" width="60" height="30" as="geometry" />
        </mxCell>
        <mxCell id="cDbWXvLrCpcBQiEZtTeX-79" value="Ja" style="text;html=1;align=center;verticalAlign=middle;whiteSpace=wrap;rounded=0;" vertex="1" parent="1">
          <mxGeometry x="440" y="-820" width="60" height="30" as="geometry" />
        </mxCell>
        <mxCell id="cDbWXvLrCpcBQiEZtTeX-80" value="Ja" style="text;html=1;align=center;verticalAlign=middle;whiteSpace=wrap;rounded=0;" vertex="1" parent="1">
          <mxGeometry x="340" y="-840" width="60" height="30" as="geometry" />
        </mxCell>
        <mxCell id="cDbWXvLrCpcBQiEZtTeX-82" value="Nej" style="text;html=1;align=center;verticalAlign=middle;whiteSpace=wrap;rounded=0;" vertex="1" parent="1">
          <mxGeometry x="1050" y="-850" width="60" height="30" as="geometry" />
        </mxCell>
      </root>
    </mxGraphModel>
  </diagram>
</mxfile>
